<svg width="288" height="288" xmlns="http://www.w3.org/2000/svg" viewBox="0 0 32 32" xmlns:xlink="http://www.w3.org/1999/xlink"><path d="M19 30h-6a1 1 0 0 1-.602-1.797l4.4-3.326A3.057 3.057 0 0 0 18 22.45c0-1.355-.933-1.958-1.334-2.157-.725-.36-1.842-.488-2.802.239l-.26.197a1 1 0 0 1-1.207-1.595l.26-.197c1.414-1.068 3.293-1.234 4.9-.435 1.53.762 2.443 2.212 2.443 3.882 0 1.64-.746 3.144-1.996 4.09L15.98 28H19A1 1 0 1 1 19 30zm6-13H7a1 1 0 1 1 0-2h18a1 1 0 1 1 0 2zm-9-3a1 1 0 0 1-1-1V5.414l-.293.293a1 1 0 1 1-1.414-1.414l2-2A.999.999 0 0 1 17 3v10a1 1 0 0 1-1 1z" fill="#ffffff" class="color000 svgShape"></path><path d="M18 14h-4a1 1 0 1 1 0-2h4a1 1 0 1 1 0 2z" fill="#ffffff" class="color000 svgShape">

</path></svg>